<svg version="1" xmlns="http://www.w3.org/2000/svg" width="933.333" height="933.333" viewBox="0 0 700.000000 700.000000"><path d="M215.6 145.1l-46.9 47 3.4 3.5c7.2 7.5 12.2 12.4 12.7 12.4.2 0 11-10.5 23.8-23.4l23.5-23.4 7.7 7.6 7.7 7.7.2 197.2.1 197.1 15.7 15.7 15.7 15.6 2.5-2.3c1.4-1.3 8.5-8.3 15.9-15.6l13.4-13.4V401.5l38.7-38.7c21.2-21.3 38.9-38.5 39.2-38.3.3.1.6 48.6.6 107.5l-.1 107.3 31.4 31.3c17.2 17.3 31.5 31.4 31.7 31.4.5 0 75.3-74.8 77.3-77.2 1.1-1.4.3-2.6-5.9-8.8-3.9-3.9-7.5-7.2-8-7.3-.5-.1-7.8 6.8-16.3 15.3l-15.5 15.4-15.8-15.9-15.9-16 .1-181.2.1-181.2-23.8-23.8-23.7-23.7-23.6 23.7-23.7 23.6 15.2 15.2c8.3 8.3 15.5 16.1 15.9 17.3.4 1.1.7 19.1.6 39.9l-.1 37.8-39.2 39.2-39.2 39.2V145l-23.5-23.5C274.6 108.6 263.6 98 263.2 98c-.4.1-21.8 21.2-47.6 47.1z"/></svg>