<?xml version="1.0" encoding="UTF-8" standalone="no"?>
<!-- Generator: Adobe Illustrator 15.0.2, SVG Export Plug-In . SVG Version: 6.00 Build 0)  -->

<svg
   xmlns:dc="http://purl.org/dc/elements/1.1/"
   xmlns:cc="http://creativecommons.org/ns#"
   xmlns:rdf="http://www.w3.org/1999/02/22-rdf-syntax-ns#"
   xmlns:svg="http://www.w3.org/2000/svg"
   xmlns="http://www.w3.org/2000/svg"
   xmlns:sodipodi="http://sodipodi.sourceforge.net/DTD/sodipodi-0.dtd"
   xmlns:inkscape="http://www.inkscape.org/namespaces/inkscape"
   version="1.1"
   id="Layer_1"
   x="0px"
   y="0px"
   width="5505.7422"
   height="1102.5989"
   viewBox="0 0 5505.7424 1102.5989"
   enable-background="new 0 0 5952.76 3968.5"
   xml:space="preserve"
   sodipodi:docname="osworld-logo.svg"
   inkscape:version="0.92.4 (unknown)"><metadata
   id="metadata3859"><rdf:RDF><cc:Work
       rdf:about=""><dc:format>image/svg+xml</dc:format><dc:type
         rdf:resource="http://purl.org/dc/dcmitype/StillImage" /><dc:title></dc:title></cc:Work></rdf:RDF></metadata><defs
   id="defs3857" /><sodipodi:namedview
   pagecolor="#ffffff"
   bordercolor="#666666"
   borderopacity="1"
   objecttolerance="10"
   gridtolerance="10"
   guidetolerance="10"
   inkscape:pageopacity="0"
   inkscape:pageshadow="2"
   inkscape:window-width="2560"
   inkscape:window-height="1539"
   id="namedview3855"
   showgrid="false"
   fit-margin-top="0"
   fit-margin-left="0"
   fit-margin-right="0"
   fit-margin-bottom="0"
   inkscape:zoom="0.24143371"
   inkscape:cx="2934.9077"
   inkscape:cy="454.66533"
   inkscape:window-x="0"
   inkscape:window-y="352"
   inkscape:window-maximized="1"
   inkscape:current-layer="Layer_1" />
<g
   id="g3826"
   transform="matrix(0.9084244,0,0,0.27047685,49.054918,14.60575)">
	<g
   id="g3808">
		<rect
   y="0"
   width="5952.7598"
   height="3968.5"
   id="rect3806"
   x="0"
   style="fill:#ffffff" />
	</g>
	<line
   x1="0"
   y1="-54"
   x2="0"
   y2="-18"
   id="line3810"
   style="fill:none;stroke:#000000;stroke-width:0.30000001" />
	<line
   x1="-54"
   y1="0"
   x2="-18"
   y2="0"
   id="line3812"
   style="fill:none;stroke:#000000;stroke-width:0.30000001" />
	<line
   x1="-54"
   y1="3968.5"
   x2="-18"
   y2="3968.5"
   id="line3814"
   style="fill:none;stroke:#000000;stroke-width:0.30000001" />
	<line
   x1="0"
   y1="4022.5"
   x2="0"
   y2="3986.5"
   id="line3816"
   style="fill:none;stroke:#000000;stroke-width:0.30000001" />
	<line
   x1="5952.7598"
   y1="-54"
   x2="5952.7598"
   y2="-18"
   id="line3818"
   style="fill:none;stroke:#000000;stroke-width:0.30000001" />
	<line
   x1="6006.7598"
   y1="0"
   x2="5970.7598"
   y2="0"
   id="line3820"
   style="fill:none;stroke:#000000;stroke-width:0.30000001" />
	<line
   x1="6006.7598"
   y1="3968.5"
   x2="5970.7598"
   y2="3968.5"
   id="line3822"
   style="fill:none;stroke:#000000;stroke-width:0.30000001" />
	<line
   x1="5952.7598"
   y1="4022.5"
   x2="5952.7598"
   y2="3986.5"
   id="line3824"
   style="fill:none;stroke:#000000;stroke-width:0.30000001" />
</g>
<g
   id="g3852"
   transform="translate(-202.79926,-1403.9571)">
	<g
   id="g3848">
		<path
   d="m 1390.108,1989.375 c 0,-154.644 48.153,-261.625 313.4,-261.625 266.017,0 313.402,106.981 313.402,261.625 0,153.711 -47.385,261.598 -313.402,261.598 -265.247,0 -313.4,-107.887 -313.4,-261.598 z m 486.921,-0.906 c 0,-120.481 -17.588,-197.803 -173.521,-197.803 -155.191,0 -174.289,76.443 -174.289,197.803 0,122.267 19.098,199.588 174.289,199.588 155.933,0 173.521,-77.322 173.521,-199.588 z"
   id="path3828"
   inkscape:connector-curvature="0"
   style="fill:#1e5b97" />
		<path
   d="m 2062.211,2230.312 c -22.939,-5.405 -26.751,-8.999 -26.751,-36.85 0,-38.688 13.746,-35.972 43.57,-31.499 38.223,5.433 116.174,17.094 188.804,17.094 87.914,0 153.655,0.905 153.655,-65.604 0,-54.877 -28.289,-58.444 -125.365,-64.755 l -31.362,-1.811 c -158.978,-9.879 -225.489,-30.567 -225.489,-167.21 0,-138.455 119.248,-146.521 250.733,-146.521 84.07,0 185.757,11.689 205.624,15.256 22.169,3.621 25.982,9 25.982,36.877 0,30.565 -7.626,35.944 -29.058,32.376 -22.141,-3.621 -118.478,-16.188 -190.337,-16.188 -81.028,0 -132.228,-0.906 -132.228,58.444 0,53.943 26.752,53.011 129.948,62.01 l 25.986,1.812 c 138.37,10.784 220.933,18.878 220.933,161.832 0,129.454 -84.099,162.709 -268.32,162.709 -108.548,0 -199.506,-14.378 -216.325,-17.972 z"
   id="path3830"
   inkscape:connector-curvature="0"
   style="fill:#1e5b97" />
		<path
   d="m 2703.117,2239.285 c -35.861,0 -54.821,-15.258 -63.244,-53.012 l -87.859,-386.608 c -11.25,-49.443 -7.024,-59.322 56.936,-59.322 49.883,0 60.448,10.784 69.557,51.229 l 81.546,362.323 c 3.513,17.973 12.622,22.472 26.725,22.472 h 9.111 c 14.762,0 23.899,-4.499 27.411,-22.472 l 68.897,-361.419 c 7.71,-38.66 27.383,-52.133 63.244,-52.133 h 117.355 c 36.549,0 55.534,13.473 63.272,52.133 l 70.271,361.419 c 3.512,17.067 12.648,22.472 27.411,22.472 h 9.109 c 14.104,0 23.927,-5.404 27.439,-22.472 l 78.692,-376.702 c 6.338,-28.782 16.188,-36.85 50.624,-36.85 28.783,0 33.008,7.19 25.984,35.945 l -90.655,410.863 c -8.426,37.755 -27.414,52.134 -63.932,52.134 h -118.81 c -35.835,0 -56.193,-14.379 -63.932,-53.012 l -67.472,-361.418 c -3.539,-17.094 -9.849,-21.594 -24.611,-21.594 h -9.822 c -14.077,0 -21.101,4.5 -24.585,21.594 l -68.927,362.296 c -7.71,37.755 -27.384,52.134 -63.932,52.134 z"
   id="path3832"
   inkscape:connector-curvature="0"
   style="fill:#1e5b97" />
		<path
   d="m 3401.453,2063.979 c 0,-103.387 20.633,-186.114 229.329,-186.114 207.929,0 229.33,82.727 229.33,186.114 0,102.482 -21.401,185.21 -229.33,185.21 -208.696,0 -229.329,-82.727 -229.329,-185.21 z m 330.221,0 c 0,-88.104 -7.628,-136.643 -100.892,-136.643 -93.261,0 -100.917,48.539 -100.917,136.643 0,88.105 7.656,135.767 100.917,135.767 93.264,0 100.892,-47.661 100.892,-135.767 z"
   id="path3834"
   inkscape:connector-curvature="0"
   style="fill:#1e5b97" />
		<path
   d="m 3953.24,2239.285 c -48.156,0 -55.812,-7.19 -55.812,-49.445 v -229.248 c 0,-34.161 5.353,-57.539 68.817,-68.322 48.923,-8.973 123.827,-14.405 179.637,-14.405 18.33,0 22.941,4.501 22.941,29.688 0,21.566 -2.305,31.472 -20.662,31.472 h -8.397 c -38.22,0 -86.376,4.473 -104.732,8.972 -8.396,2.689 -15.282,8.123 -15.282,23.378 v 218.464 c 0,42.255 -7.656,49.445 -53.504,49.445 h -13.006 z"
   id="path3836"
   inkscape:connector-curvature="0"
   style="fill:#1e5b97" />
		<path
   d="m 4252.62,2239.285 c -48.155,0 -55.812,-7.19 -55.812,-49.445 v -399.174 c 0,-42.255 6.888,-50.323 53.533,-50.323 h 12.211 c 48.152,0 56.579,8.068 56.579,50.323 v 399.174 c 0,42.255 -7.656,49.445 -53.506,49.445 z"
   id="path3838"
   inkscape:connector-curvature="0"
   style="fill:#1e5b97" />
		<path
   d="m 4356.528,2063.074 c 0,-127.643 34.407,-185.209 217.094,-185.209 34.407,0 60.392,2.716 83.33,4.501 9.933,0.932 18.329,-1.785 18.329,-18.878 v -72.822 c 0,-42.255 7.654,-50.323 53.531,-50.323 h 12.209 c 48.924,0 56.578,8.068 56.578,50.323 v 386.607 c 0,34.16 -5.35,50.322 -67.277,60.227 -35.147,6.283 -90.191,10.783 -147.535,10.783 -185.731,0 -226.259,-57.538 -226.259,-185.209 z m 303.469,127.671 c 7.656,-1.782 15.284,-4.472 15.284,-19.782 v -215.776 c 0,-15.256 -7.628,-17.945 -15.284,-20.661 -6.86,-1.784 -39.729,-6.285 -77.21,-6.285 -71.834,0 -98.587,22.445 -98.587,134.833 0,112.388 26.753,134.888 98.587,134.888 37.481,0 70.35,-5.434 77.21,-7.217 z"
   id="path3840"
   inkscape:connector-curvature="0"
   style="fill:#1e5b97" />
		<path
   d="m 4862.438,2176.367 c 0,-64.727 9.934,-67.416 58.857,-67.416 48.154,0 58.854,2.689 58.854,67.416 0,60.228 -10.699,62.918 -58.854,62.918 -48.924,0 -58.857,-2.69 -58.857,-62.918 z"
   id="path3842"
   inkscape:connector-curvature="0"
   style="fill:#1e5b97" />
		<path
   d="m 5045.066,2334.604 v -385.701 c 0,-34.161 5.35,-50.35 67.279,-60.227 35.178,-6.31 90.191,-10.811 147.537,-10.811 185.76,0 226.258,57.566 226.258,185.209 0,127.671 -35.148,185.209 -217.094,185.209 -35.148,0 -61.16,-2.688 -83.301,-4.5 -9.961,-0.877 -18.356,1.812 -18.356,18.879 v 71.942 c 0,42.256 -7.655,50.322 -53.506,50.322 h -13.005 c -48.155,0 -55.812,-8.066 -55.812,-50.322 z m 312.661,-271.53 c 0,-112.388 -25.982,-134.833 -98.611,-134.833 -36.686,0 -69.557,5.379 -76.445,7.19 -7.625,1.811 -15.28,4.5 -15.28,19.756 v 215.776 c 0,15.311 7.655,18 15.28,20.688 6.889,1.812 39.76,6.312 76.445,6.312 72.628,0 98.611,-22.501 98.611,-134.889 z"
   id="path3844"
   inkscape:connector-curvature="0"
   style="fill:#1e5b97" />
		<path
   d="m 5579.268,2239.285 c -48.154,0 -55.811,-7.19 -55.811,-49.445 v -399.174 c 0,-42.255 6.887,-50.323 53.531,-50.323 h 12.21 c 48.155,0 56.579,8.068 56.579,50.323 v 399.174 c 0,42.255 -7.655,49.445 -53.504,49.445 z"
   id="path3846"
   inkscape:connector-curvature="0"
   style="fill:#1e5b97" />
	</g>
	<path
   d="m 1190.136,1683.546 c 0,0.549 -0.988,0.877 -1.591,0.439 6.585,40.061 49.747,161.887 49.444,216.709 -1.756,318.724 -199.641,487.689 -462.5,499.434 4.58,-54.19 -0.488,-106.128 0,-154.697 55.863,-4.5 135.024,-10.564 179.254,-10.208 -17.753,26.479 -44.89,124.626 -29.935,122.046 46.7,-8.065 70.859,-86.269 85.772,-125.558 51.421,-13.711 150.143,-49.169 158.045,-79.022 -16.601,-10.564 -94.827,-5.269 -130.333,13.664 12.539,-56.139 31.912,-106.352 30.237,-187.514 45.108,-24.283 150.911,-87.501 144.875,-107.119 -19.538,-2.991 -112.06,17.011 -143.997,41.267 -2.407,-69.986 -8.478,-113.733 -29.854,-164.191 35.039,-18.164 124.406,-63.932 120.291,-72.876 -2.798,-6.037 -100.973,3.512 -146.384,21.127 -30.043,-59.651 -86.897,-155.713 -116.942,-176.128 127.396,11.8 212.922,105.584 292.027,163.067 -0.193,-1.208 0.795,-1.482 1.591,-0.44 0.219,-30.182 -36.959,-80.175 -52.078,-98.175 -70.435,-84.07 -225.078,-141.555 -349.263,-147.838 -287.693,-14.542 -522.538,208.89 -538.917,481.271 -1.373,23.433 -1.922,50.706 0,75.647 19.617,250.319 222.909,440.029 462.418,467.523 144.792,16.655 299.023,-40.444 382.518,-110.002 167.816,-139.743 255.341,-455.943 95.322,-668.426 z M 772.14,1499.435 c 27.465,3.677 55.398,6.969 83.192,10.29 27.905,73.123 70.928,115.104 92.496,194.84 -56.828,13.768 -119.495,20.435 -175.688,21.73 -4.529,-78.171 -7.024,-164.987 0,-226.86 z m -6.641,292.191 c 76.773,-0.878 142.022,-8.944 203.402,-25.737 21.622,47.552 33.555,92.55 32.816,163.259 -75.649,14.68 -152.092,28.508 -239.563,30.951 0.657,-56.607 5.404,-109.014 3.345,-168.473 z m -29.907,-288.761 c -10.372,60.172 -20.086,151.158 -33.311,223.43 -44.176,-2.469 -86.54,-6.804 -129.728,-10.289 29.743,-81.602 64.754,-134.037 123.088,-209.712 13.746,-5.158 22.883,-6.146 39.951,-3.429 z m -36.603,457.233 C 631,1949 573,1944 509.363,1936.035 518.169,1879.814 530,1821 545.963,1777.881 c 50.461,4.005 96.037,7.12 153.026,10.316 3.923,44.066 -2.498,109.835 0,171.901 z m 0,65.304 c 2.331,52.599 5.129,104.677 9.959,154.697 -54.948,-4.1 -99.244,-9.74 -149.676,-13.747 -23.569,-44.396 -39.292,-96.913 -46.592,-158.155 55.865,11.552 118.316,19.756 186.309,17.205 z m -86.486,-495.044 c 5.625,-1.235 9.987,-5.351 10.372,-1.126 -47.606,43.628 -83.633,111.071 -113.512,173.027 C 476,1694 446,1686 412.888,1678.169 c 44.89,-71.615 121.059,-110.961 199.615,-147.811 z m -242.857,202.825 c 39.045,8.917 72.053,24.118 113.1,30.95 -14.403,48.156 -23.568,101.715 -33.255,154.671 -47.989,-9.933 -84.976,-25.134 -129.756,-44.67 9.11,-54.768 27.301,-100.151 49.911,-140.951 z m -56.551,206.255 c 40.911,20.798 88.187,34.929 136.395,48.153 3.623,48.101 16.079,112.965 33.255,158.128 -54.438,-10.152 -98.311,-22.828 -146.382,-48.127 -12.567,-47.743 -26.507,-94.086 -23.268,-158.154 z m 69.858,247.549 c 45.521,12.511 88.792,27.383 136.369,37.81 27.686,66.482 65.798,122.237 133.104,147.809 -11.003,-52.817 -35.396,-91.78 -56.55,-134.063 42.42,3.128 83.138,7.984 126.408,10.318 5.489,56.165 20.415,102.646 33.257,151.267 -177.913,-15.558 -296.775,-92.083 -372.588,-213.141 z m 379.2,-158.156 c 85.633,-4.39 175.439,-22.609 239.563,-37.811 3.759,62.479 -16.793,129.264 -33.311,182.192 -64.012,4.884 -131.073,6.612 -196.266,10.317 -3.403,-51.474 -5.541,-104.266 -9.986,-154.698 z"
   id="path3850"
   inkscape:connector-curvature="0"
   style="clip-rule:evenodd;fill:#1e5b97;fill-rule:evenodd" />
</g>
</svg>