<svg version="1" xmlns="http://www.w3.org/2000/svg" width="1841.333" height="1841.333" viewBox="0 0 1381.000000 1381.000000"><path d="M1 690.5V1380h1379V1H1v689.5zm616-211l.1 178 73.5-74 73.4-74v-149l-30-30-30-30 45.2-45.2 45.3-45.3 45.7 45.7 45.8 45.8v687.4l29.2 30.2 29.1 30.1 29.9-29.9 29.8-29.8 15.2 15.3 15.3 15.2-75 75-75 75-60.2-60.2-60.3-60.3v-408L690.5 715 617 788.5v321l-30.2 30.2-30.3 30.3-30.2-30.2-30.3-30.3v-747L481.5 348 467 333.5l-44.8 44.8-44.7 44.7-16-16-16-16 90.5-90.6 90.5-90.6 45.2 45.9 45.3 45.8v178z"/></svg>