<svg width="510.13" height="190.67" data-name="Layer 1" viewBox="0 0 510.13 190.66619" xmlns="http://www.w3.org/2000/svg"><path d="M150.39 102.26l-11.051 11.051v63.549l-5.53 5.531 8.292 8.28 8.289-8.28v-63.55l8.29-8.29zm8.291 8.291v41.439l-8.291 8.29 8.291 8.29 11.049-11.05V121.6zm97.434 13.367l-8.291 8.29 8.291 8.29v50.172l11.049-11.05v-44.65zm11.049 11.051l8.291 8.29v47.313l11.049-11.05v-41.794l-11.049-11.05zm72.037-11.051l-8.29 8.29 8.29 8.29v50.172l11.051-11.05v-44.65zm11.051 11.051l8.29 8.29v47.313l11.05-11.05v-41.794l-11.05-11.05zm-153.57-10.609l-8.29 8.291 8.29 8.29v41.44l11.051-11.05v-35.92zm0 58.021l-8.29-8.291v-41.439l-11.05 11.049v35.92l11.05 11.051zm116.77-58.021l-8.29 8.291 8.29 8.29v41.44l8.291 8.29 8.29-8.29-5.53-5.521v-41.45zm0 58.021l-8.29-8.291v-41.439l-11.05 11.049v35.92l11.05 11.051zm-89.807-58.012l-8.287 8.287 8.287 8.287 8.275-8.275v11.039l-8.29 8.29-6.91 6.911-1.38 1.379v13.81l8.29 8.292v-13.811l16.58-16.58v-11.051l-8.284-8.283.006-.008zm8.273 49.727l-8.287 8.287 8.287 8.287 8.287-8.287zm236.77-118.83l-8.29-8.29v-11.05l-8.29 8.29v11.05l16.58 16.58v13.81l8.29-8.29v-13.81l-1.38-1.38zm-8.302-19.341l8.287-8.287 8.288 8.287-8.288 8.287zm-8.273 49.726l8.287-8.287 8.287 8.287-8.287 8.287zm-93.864-49.725l-8.29-8.29-8.29 8.29 5.52 5.53v46.97l5.53 5.52 5.53-5.52v-38.69zm-.003 0l8.287-8.288 8.287 8.288-8.287 8.287zm67.183 0l8.22 8.22-8.22 8.22v-16.44l-11.05 11.05v35.92l11.05 11.05 5.52-5.52 2.77-2.77 8.28-8.29-2.76-2.76-8.29 8.29-5.52-5.53v-19.47l19.27-19.28-10.98-10.98zm-261.43-22.11l-8.29-8.28-8.29 8.28 5.53 5.53v69.08l5.53 5.52 5.52-5.52v-60.79zm0 38.69l5.53 5.52v30.4l5.52 5.52 5.53-5.52v-35.92l-8.29-8.29zm-.002-16.582l8.287-8.287 8.287 8.287-8.287 8.287zm-36.815-.074l8.287-8.287 8.287 8.287-8.287 8.287zm-11.053 11.126v35.92l11.05 11.05 5.53-5.52 2.76-2.77 8.29-8.29-2.76-2.76-8.29 8.29-5.53-5.53v-41.44zm-24-19.34l-8.29 8.29 8.29 8.29v41.44l8.29 8.29 8.29-8.29-5.53-5.52v-41.45zm-8.29 49.73v-41.44l-11.05 11.05v35.92l11.05 11.05 8.29-8.29zm232.98 16.58l5.52-5.52 2.77-2.77 8.29-8.29-2.77-2.76-8.29 8.29-5.52-5.53v-19.47l19.27-19.28-10.98-10.98-8.29 8.29 8.22 8.22-8.22 8.22v-16.44l-11.05 11.05v35.92zm-73.64-49.73v41.44l11.05-11.05v-35.92l-11.05-11.05-8.29 8.29zm-19.34 2.76v35.92l11.05 11.05 8.29-8.29-8.29-8.29v-41.44zm280.77 30.39l-5.53 5.53v-44.21l11.05-11.05h-11.05v-8.29l-19.34 19.34h8.29v49.74l5.52 5.52 5.53-5.52 8.29-8.29zm-452.35-.84V9.756l-8.71-8.71-8.71 8.71 5.8 5.81v14.44l-14.44 14.45v-34.7l-8.71-8.71-.04.04-.03-.04-17.42 17.42 2.98 2.97 8.7-8.7 2.91 2.9v72.51l5.8 5.8 5.81-5.8v-31.19l14.44-14.44v39.82l11.62 11.61 5.8-5.8 2.91-2.91 5.8-5.8-2.9-2.91-5.81 5.81zm232.35-32.31v41.44l11.05-11.05v-35.92l-11.05-11.05-8.29 8.29zm-8.29-16.58v-13.82l-8.29-8.28-8.29 8.28 5.53 5.53v63.55l11.05 11.05 8.29-8.29-8.29-8.29v-41.44zm123.35-19.343l8.287-8.287 8.287 8.287-8.287 8.287zm-11.055 80.133l5.53 5.52 5.53-5.52v-49.74l11.05-11.05h-11.05V8.296l-11.06 11.05v11.05l-8.29 8.29h8.29zm-199.77-49.74h8.29v49.74l5.53 5.52 5.52-5.52 8.29-8.29-2.76-2.77-5.53 5.53v-44.21l11.06-11.05h-11.06v-8.29z" fill="#fff"/></svg>