<svg xmlns="http://www.w3.org/2000/svg" width="5505.742" height="1102.599" viewBox="0 0 5505.7424 1102.5989"><path fill="#fff" d="M49.055 14.606h5407.632v1073.387H49.055z"/><path fill="none" stroke="#000" stroke-width=".3" d="M0-54v36M-54 0h36m-36 3968.5h36m18 54v-36M5952.76-54v36m54 18h-36m36 3968.5h-36m-18 54v-36" transform="matrix(.90842 0 0 .27048 49.055 14.606)"/><g fill="#1e5b97"><path d="M1187.309 585.418c0-154.644 48.153-261.625 313.4-261.625 266.017 0 313.402 106.98 313.402 261.625 0 153.71-47.385 261.598-313.402 261.598-265.247 0-313.4-107.887-313.4-261.598zm486.92-.906c0-120.481-17.587-197.803-173.52-197.803-155.191 0-174.29 76.443-174.29 197.803 0 122.267 19.099 199.588 174.29 199.588 155.933 0 173.52-77.322 173.52-199.588zm185.183 241.843c-22.94-5.405-26.751-9-26.751-36.85 0-38.688 13.746-35.972 43.57-31.5 38.223 5.434 116.174 17.095 188.804 17.095 87.914 0 153.655.905 153.655-65.604 0-54.877-28.29-58.444-125.365-64.755l-31.362-1.811c-158.978-9.88-225.49-30.567-225.49-167.21 0-138.455 119.249-146.521 250.734-146.521 84.07 0 185.757 11.689 205.624 15.256 22.169 3.62 25.982 9 25.982 36.877 0 30.565-7.626 35.944-29.058 32.376-22.141-3.621-118.478-16.188-190.337-16.188-81.028 0-132.228-.906-132.228 58.444 0 53.943 26.752 53.01 129.948 62.01l25.986 1.812c138.37 10.784 220.933 18.878 220.933 161.832 0 129.454-84.1 162.709-268.32 162.709-108.548 0-199.506-14.378-216.325-17.972zm640.906 8.973c-35.861 0-54.821-15.258-63.244-53.012l-87.86-386.608c-11.25-49.443-7.023-59.322 56.937-59.322 49.883 0 60.448 10.784 69.557 51.229l81.546 362.323c3.513 17.973 12.622 22.472 26.725 22.472h9.11c14.763 0 23.9-4.5 27.412-22.472l68.897-361.42c7.71-38.66 27.383-52.132 63.244-52.132h117.355c36.549 0 55.534 13.473 63.272 52.133l70.27 361.419c3.513 17.067 12.649 22.472 27.412 22.472h9.109c14.104 0 23.927-5.404 27.439-22.472l78.692-376.702c6.338-28.782 16.188-36.85 50.624-36.85 28.783 0 33.008 7.19 25.984 35.945l-90.655 410.863c-8.426 37.755-27.414 52.134-63.932 52.134h-118.81c-35.835 0-56.193-14.38-63.932-53.012l-67.472-361.418c-3.54-17.094-9.85-21.594-24.611-21.594h-9.822c-14.077 0-21.101 4.5-24.585 21.594l-68.927 362.296c-7.71 37.755-27.384 52.134-63.932 52.134zm698.336-175.306c0-103.387 20.633-186.114 229.329-186.114 207.929 0 229.33 82.727 229.33 186.114 0 102.482-21.401 185.21-229.33 185.21-208.696 0-229.33-82.727-229.33-185.21zm330.22 0c0-88.104-7.627-136.643-100.891-136.643-93.261 0-100.917 48.539-100.917 136.643 0 88.105 7.656 135.767 100.917 135.767 93.264 0 100.892-47.661 100.892-135.767zm221.566 175.306c-48.155 0-55.811-7.19-55.811-49.445V556.635c0-34.161 5.353-57.54 68.817-68.322 48.923-8.973 123.827-14.405 179.637-14.405 18.33 0 22.94 4.5 22.94 29.688 0 21.566-2.304 31.472-20.661 31.472h-8.397c-38.22 0-86.376 4.473-104.732 8.972-8.396 2.689-15.282 8.123-15.282 23.378v218.464c0 42.255-7.656 49.445-53.504 49.445h-13.006zm299.38 0c-48.154 0-55.811-7.19-55.811-49.445V386.709c0-42.255 6.888-50.323 53.533-50.323h12.21c48.153 0 56.58 8.068 56.58 50.323v399.174c0 42.255-7.656 49.445-53.506 49.445zm103.909-176.211c0-127.643 34.407-185.21 217.094-185.21 34.407 0 60.392 2.717 83.33 4.502 9.933.932 18.329-1.785 18.329-18.878v-72.822c0-42.255 7.654-50.323 53.53-50.323h12.21c48.924 0 56.578 8.068 56.578 50.323v386.607c0 34.16-5.35 50.322-67.277 60.227-35.147 6.283-90.191 10.783-147.535 10.783-185.731 0-226.26-57.538-226.26-185.21zm303.469 127.67c7.656-1.781 15.284-4.471 15.284-19.781V551.23c0-15.256-7.628-17.945-15.284-20.661-6.86-1.784-39.73-6.285-77.21-6.285-71.834 0-98.587 22.445-98.587 134.833s26.753 134.888 98.587 134.888c37.48 0 70.35-5.434 77.21-7.217zm202.441-14.377c0-64.727 9.934-67.416 58.857-67.416 48.154 0 58.854 2.689 58.854 67.416 0 60.228-10.7 62.918-58.854 62.918-48.924 0-58.857-2.69-58.857-62.918zm182.628 158.237V544.946c0-34.161 5.35-50.35 67.279-60.227 35.178-6.31 90.19-10.811 147.537-10.811 185.76 0 226.258 57.566 226.258 185.209 0 127.67-35.148 185.209-217.094 185.209-35.148 0-61.16-2.688-83.301-4.5-9.961-.877-18.356 1.812-18.356 18.879v71.942c0 42.256-7.655 50.322-53.506 50.322h-13.005c-48.155 0-55.812-8.066-55.812-50.322zm312.66-271.53c0-112.388-25.981-134.833-98.61-134.833-36.686 0-69.557 5.379-76.445 7.19-7.625 1.81-15.28 4.5-15.28 19.756v215.776c0 15.31 7.655 18 15.28 20.688 6.889 1.812 39.76 6.312 76.445 6.312 72.628 0 98.61-22.501 98.61-134.89zm221.542 176.211c-48.154 0-55.811-7.19-55.811-49.445V386.709c0-42.255 6.887-50.323 53.53-50.323h12.21c48.156 0 56.58 8.068 56.58 50.323v399.174c0 42.255-7.655 49.445-53.504 49.445z"/><path d="M987.337 279.589c0 .549-.988.877-1.591.439 6.585 40.06 49.747 161.887 49.444 216.709-1.756 318.724-199.641 487.689-462.5 499.434 4.58-54.19-.488-106.128 0-154.697 55.863-4.5 135.024-10.564 179.254-10.208-17.753 26.479-44.89 124.626-29.935 122.046 46.7-8.065 70.859-86.27 85.772-125.558 51.42-13.711 150.143-49.17 158.045-79.022-16.601-10.564-94.827-5.27-130.333 13.664 12.539-56.14 31.912-106.352 30.237-187.514 45.108-24.283 150.91-87.501 144.875-107.12-19.538-2.99-112.06 17.012-143.997 41.268-2.407-69.986-8.478-113.733-29.854-164.191 35.039-18.164 124.406-63.932 120.29-72.876-2.797-6.037-100.972 3.512-146.383 21.127-30.043-59.651-86.897-155.713-116.942-176.128 127.396 11.8 212.922 105.584 292.027 163.067-.193-1.208.795-1.482 1.59-.44.22-30.182-36.958-80.175-52.077-98.175C864.824 97.344 710.18 39.859 585.996 33.576 298.303 19.034 63.458 242.466 47.079 514.846c-1.373 23.434-1.922 50.707 0 75.648 19.617 250.319 222.909 440.029 462.418 467.523 144.792 16.655 299.023-40.444 382.518-110.002 167.816-139.743 255.34-455.943 95.322-668.426zM569.34 95.478c27.465 3.677 55.398 6.969 83.192 10.29 27.905 73.123 70.928 115.104 92.496 194.84-56.828 13.768-119.495 20.435-175.688 21.73-4.53-78.171-7.024-164.987 0-226.86zm-6.641 292.19c76.773-.877 142.022-8.943 203.402-25.736 21.622 47.552 33.555 92.55 32.816 163.259-75.65 14.68-152.092 28.508-239.563 30.95.657-56.606 5.404-109.013 3.345-168.472zm-29.907-288.76c-10.372 60.172-20.086 151.158-33.311 223.43-44.176-2.47-86.54-6.804-129.728-10.29 29.743-81.601 64.754-134.036 123.088-209.711 13.746-5.158 22.883-6.146 39.95-3.43zM496.19 556.14c-67.99-11.098-125.99-16.098-189.626-24.063 8.806-56.221 20.637-115.035 36.6-158.154 50.46 4.005 96.037 7.12 153.026 10.316 3.923 44.066-2.498 109.835 0 171.9zm0 65.304c2.33 52.599 5.129 104.677 9.959 154.697-54.948-4.1-99.244-9.74-149.676-13.747-23.57-44.396-39.292-96.913-46.592-158.155 55.865 11.552 118.316 19.756 186.309 17.205zM409.704 126.4c5.625-1.235 9.987-5.351 10.372-1.126-47.606 43.628-83.633 111.07-113.512 173.027-33.363-8.26-63.363-16.26-96.475-24.09 44.89-71.615 121.059-110.961 199.615-147.811zM166.847 329.226c39.045 8.917 72.053 24.118 113.1 30.95-14.403 48.156-23.568 101.715-33.255 154.67-47.99-9.932-84.976-25.133-129.756-44.67 9.11-54.767 27.3-100.15 49.91-140.95zM110.296 535.48c40.91 20.798 88.187 34.929 136.395 48.153 3.623 48.1 16.079 112.965 33.255 158.128-54.438-10.152-98.311-22.828-146.382-48.127-12.567-47.743-26.507-94.086-23.268-158.154zm69.858 247.549c45.52 12.51 88.792 27.383 136.369 37.81 27.686 66.482 65.798 122.237 133.104 147.809-11.003-52.817-35.396-91.78-56.55-134.063 42.42 3.128 83.138 7.984 126.408 10.318 5.489 56.165 20.415 102.646 33.257 151.267-177.913-15.558-296.775-92.083-372.588-213.141zm379.2-158.156c85.633-4.39 175.439-22.61 239.563-37.811 3.759 62.479-16.793 129.264-33.311 182.192-64.012 4.884-131.073 6.612-196.266 10.317-3.403-51.474-5.541-104.266-9.986-154.698z" clip-rule="evenodd" fill-rule="evenodd"/></g></svg>