<svg width="283" height="130" viewBox="0 0 283 130" xmlns="http://www.w3.org/2000/svg"><g fill="none" fill-rule="evenodd"><path d="M119.03 37.145s12.342 5.955 14.727 16.177c2.383 10.22 1.55 18.012 1.55 18.012s-9.388-5.407-13.94-10.53c-4.55-5.122-8.03-9.433-2.338-23.66m21.213 11.481s13.127 3.935 17.093 13.652c3.966 9.718 4.37 17.543 4.37 17.543s-10.122-3.86-15.425-8.2c-5.302-4.34-9.417-8.05-6.038-22.995m22.886 9.045s13.443 2.664 18.317 11.96c4.874 9.294 6.025 17.045 6.025 17.045s-10.446-2.876-16.137-6.692c-5.692-3.815-10.142-7.115-8.205-22.314m23.492 7.736s13.69.648 19.885 9.12c6.195 8.472 8.478 15.97 8.478 15.97s-10.756-1.303-16.95-4.234c-6.192-2.93-11.082-5.538-11.412-20.855" fill="#FF9566"/><path d="M240.076 77.447a2.669 2.669 0 0 1 .73-1.92 2.7 2.7 0 0 1 1.874-.84 2.687 2.687 0 0 1 .355 5.353c-.065.008-.133.01-.2.012a2.671 2.671 0 0 1-1.92-.73 2.667 2.667 0 0 1-.84-1.875zm-25.258-.98l22.956 1.9a5.041 5.041 0 0 0 1.488 2.708 5.064 5.064 0 0 0 3.642 1.388 5.064 5.064 0 0 0 3.558-1.596 5.062 5.062 0 0 0 1.056-1.692l17.21 1.424.2-2.402-17.137-1.42c-.133-1.147-.632-2.26-1.536-3.112a5.067 5.067 0 0 0-4.024-1.363 5.053 5.053 0 0 0-3.176 1.57 5.06 5.06 0 0 0-1.168 2.086l-22.87-1.897-.198 2.404zm48.824-19.263a2.673 2.673 0 0 1-2.404 2.745 2.673 2.673 0 0 1-2.12-.717 2.663 2.663 0 0 1-.84-1.876 2.662 2.662 0 0 1 .73-1.92 2.657 2.657 0 0 1 1.874-.838 2.65 2.65 0 0 1 1.918.728c.522.493.82 1.158.84 1.876h.002zm18.288-3.28l-16.016 2.183a5.02 5.02 0 0 0-1.46-2.53 5.055 5.055 0 0 0-4.022-1.363 5.058 5.058 0 0 0-3.177 1.57 5.058 5.058 0 0 0-1.387 3.645c0 .014.005.03.005.048l-23.305 3.18c-3.987-1.9-12.9-5.857-16.892-5.264-4.17.623-7.93 2.8-9.417 5.212a81.482 81.482 0 0 1-6.564-.478c5.013-1.486 7.108-4.638 9.383-8.288 3.625-5.815 6.16-16.348 6.16-16.348s-7.71 1.403-16.84 6.58c-6.585 3.734-9.569 11.788-10.724 16a152.31 152.31 0 0 1-10.953-2.93c4.9-.495 7.56-3.043 10.474-6.02 4.793-4.897 9.535-14.638 9.535-14.638s-7.83-.29-17.86 2.8c-7.51 2.312-12.247 10.024-14.153 13.756a248.125 248.125 0 0 1-9.407-3.774c3.956-.468 6.542-2.522 9.354-4.893 5.24-4.417 10.887-13.66 10.887-13.66s-7.767-1.036-18.047 1.08c-7.263 1.498-12.513 8.007-14.977 11.705a358.396 358.396 0 0 1-7.036-3.458c3.024-.336 5.448-1.725 8.066-3.303 5.87-3.534 12.904-11.774 12.904-11.774s-7.506-2.245-17.99-1.776c-7.627.342-13.982 6.265-16.89 9.476C64.62-.895 4.813-50.137-19.782-80.69l-3.757 3.022C16.14-28.383 138.946 64.03 206.875 65.452c2.13 2.175 6.507 3.694 10.536 3.69 4.07-.003 11.036-3.8 14.713-5.99l24.445-3.336c.245.423.53.824.894 1.168a5.073 5.073 0 0 0 3.644 1.39 5.058 5.058 0 0 0 3.558-1.597c.6-.636.995-1.406 1.207-2.23l16.383-2.237-.323-2.387z" fill="#FF625F"/><path d="M241.34 46.305c-.49.52-1.154.818-1.874.84a2.673 2.673 0 0 1-1.92-.73 2.692 2.692 0 0 1-.11-3.796 2.69 2.69 0 0 1 3.796-.11 2.69 2.69 0 0 1 .11 3.795m3.11-1.616l16.502-3.376-.482-2.362-16.47 3.37a5.078 5.078 0 0 0-1.116-1.564 5.085 5.085 0 0 0-4.02-1.36 5.063 5.063 0 0 0-3.18 1.567 5.065 5.065 0 0 0-1.366 3.335l-20.81 4.257.482 2.36 20.818-4.256c.262.55.615 1.066 1.083 1.507a5.06 5.06 0 0 0 3.642 1.387 5.033 5.033 0 0 0 3.558-1.595 5.04 5.04 0 0 0 1.36-3.27m-4.377 32.759a2.669 2.669 0 0 1 .73-1.92 2.7 2.7 0 0 1 1.874-.84 2.687 2.687 0 0 1 .355 5.353c-.065.008-.133.01-.2.012a2.671 2.671 0 0 1-1.92-.73 2.667 2.667 0 0 1-.84-1.875zm-25.258-.98l22.956 1.9a5.041 5.041 0 0 0 1.488 2.708 5.064 5.064 0 0 0 3.642 1.388 5.064 5.064 0 0 0 3.558-1.596 5.062 5.062 0 0 0 1.056-1.692l17.21 1.424.2-2.402-17.137-1.42c-.133-1.147-.632-2.26-1.536-3.112a5.067 5.067 0 0 0-4.024-1.363 5.053 5.053 0 0 0-3.176 1.57 5.06 5.06 0 0 0-1.168 2.086l-22.87-1.897-.198 2.404z" fill="#FF625F"/><path d="M263.642 57.204a2.673 2.673 0 0 1-2.404 2.745 2.673 2.673 0 0 1-2.12-.717 2.663 2.663 0 0 1-.84-1.876 2.662 2.662 0 0 1 .73-1.92 2.657 2.657 0 0 1 1.874-.838 2.65 2.65 0 0 1 1.918.728c.522.493.82 1.158.84 1.876h.002zm18.288-3.28l-16.016 2.183a5.02 5.02 0 0 0-1.46-2.53 5.055 5.055 0 0 0-4.022-1.363 5.058 5.058 0 0 0-3.177 1.57 5.058 5.058 0 0 0-1.387 3.645c0 .014.005.03.005.048l-23.305 3.18c-3.987-1.9-12.9-5.857-16.892-5.264-4.17.623-7.93 2.8-9.417 5.212a81.482 81.482 0 0 1-6.564-.478c5.013-1.486 7.108-4.638 9.383-8.288 3.625-5.815 6.16-16.348 6.16-16.348s-7.71 1.403-16.84 6.58c-6.585 3.734-9.569 11.788-10.724 16a152.31 152.31 0 0 1-10.953-2.93c4.9-.495 7.56-3.043 10.474-6.02 4.793-4.897 9.535-14.638 9.535-14.638s-7.83-.29-17.86 2.8c-7.51 2.312-12.247 10.024-14.153 13.756a248.125 248.125 0 0 1-9.407-3.774c3.956-.468 6.542-2.522 9.354-4.893 5.24-4.417 10.887-13.66 10.887-13.66s-7.767-1.036-18.047 1.08c-7.263 1.498-12.513 8.007-14.977 11.705a358.396 358.396 0 0 1-7.036-3.458c3.024-.336 5.448-1.725 8.066-3.303 5.87-3.534 12.904-11.774 12.904-11.774s-7.506-2.245-17.99-1.776c-7.627.342-13.982 6.265-16.89 9.476C64.62-.895 4.813-50.137-19.782-80.69l-3.757 3.022C16.14-28.383 138.946 64.03 206.875 65.452c2.13 2.175 6.507 3.694 10.536 3.69 4.07-.003 11.036-3.8 14.713-5.99l24.445-3.336c.245.423.53.824.894 1.168a5.073 5.073 0 0 0 3.644 1.39 5.058 5.058 0 0 0 3.558-1.597c.6-.636.995-1.406 1.207-2.23l16.383-2.237-.323-2.387z" fill="#FF625F"/><path d="M241.34 46.305c-.49.52-1.154.818-1.874.84a2.673 2.673 0 0 1-1.92-.73 2.692 2.692 0 0 1-.11-3.796 2.69 2.69 0 0 1 3.796-.11 2.69 2.69 0 0 1 .11 3.795m3.11-1.616l16.502-3.376-.482-2.362-16.47 3.37a5.078 5.078 0 0 0-1.116-1.564 5.085 5.085 0 0 0-4.02-1.36 5.063 5.063 0 0 0-3.18 1.567 5.065 5.065 0 0 0-1.366 3.335l-20.81 4.257.482 2.36 20.818-4.256c.262.55.615 1.066 1.083 1.507a5.06 5.06 0 0 0 3.642 1.387 5.033 5.033 0 0 0 3.558-1.595 5.04 5.04 0 0 0 1.36-3.27m-123.451 73.754l-9.39 10.858-7.24-6.26 9.392-10.86" fill="#FF625F"/><path fill="#FF9566" d="M115.33 110.372l-3.132 3.62-10.857-9.39-6.26 7.238 10.857 9.39 3.562-4.118-6.692 7.738-20.582-18.376 12.522-14.478"/><path fill="#FF625F" d="M89.77 94.295l-6.26 7.24-3.62-3.132 6.26-7.238"/><path d="M3.982-.115c37.353 56.732 81.746 94.5 82.19 94.875l-2.684 3.18C83.04 97.563 38.185 59.405.508 2.174L3.982-.115z" fill="#FF625F"/></g></svg>