<svg width="305" height="291" viewBox="0 0 305 291" xmlns="http://www.w3.org/2000/svg"><g fill="none" fill-rule="evenodd"><path fill="#FF625F" d="M192.585 7.49l22.32-7.015 4.677 14.88-22.322 7.016"/><path fill="#FF9566" d="M193.54 23.54l7.443-2.34 7.012 22.323 14.882-4.677-7.014-22.322-8.466 2.663 15.906-4.998 12.8 43.106-29.76 9.35"/><path fill="#FF625F" d="M215.214 67.722l14.88-4.677 2.338 7.442-14.88 4.675"/><path d="M253.32 272.11c-3.208-110.66-32.424-201.05-32.72-201.952l6.446-2.11c.3.908 29.817 92.234 33.053 203.863l-6.78.2z" fill="#FF625F"/><path d="M98.625 81.962s-9.082-8.777-9.652-20.067c-.57-11.292 6.765-19.407 6.765-19.407s9.676 8.746 10.5 19.13c.822 10.384-7.613 20.344-7.613 20.344m5.991 41.428s-9.648-8.153-20.938-7.583c-11.29.57-18.627 8.686-18.627 8.686s9.677 8.747 20.093 8.52c10.415-.23 19.473-9.624 19.473-9.624m27.185 7.501s3.638.16 5.106.227l4.872.218c-1.4-3.012-3.39-6.126-6.21-8.675-8.39-7.58-19.314-7.03-19.314-7.03s.657 13.027 8.183 20.23c2.52 2.414 5.66 3.992 8.723 5.022l-.72-5.29-.64-4.7m36.968 14.752s-9.082-8.778-9.652-20.068c-.57-11.29 6.765-19.406 6.765-19.406s9.677 8.745 10.5 19.13c.822 10.385-7.612 20.344-7.612 20.344m5.471 40.676s-9.647-8.154-20.94-7.582c-11.29.57-18.626 8.685-18.626 8.685s9.677 8.746 20.093 8.518c10.413-.227 19.472-9.62 19.472-9.62M60.67 66.317l5.106.225 4.872.218c-1.4-3.012-3.392-6.126-6.21-8.675-8.388-7.58-19.314-7.03-19.314-7.03s.657 13.03 8.184 20.232c2.52 2.412 5.66 3.99 8.722 5.022 0 0-.526-3.88-.72-5.293l-.64-4.7" fill="#FF9566"/><path d="M50.517 34.508a4.231 4.231 0 0 1-5.454-2.46 4.232 4.232 0 0 1 5.697-5.352 4.211 4.211 0 0 1 2.217 2.36 4.225 4.225 0 0 1-2.46 5.452zm29.536 21.86L55.93 34.566c.138-.235.296-.457.408-.71a7.99 7.99 0 0 0 .194-6.143 7.983 7.983 0 0 0-4.21-4.48 7.982 7.982 0 0 0-6.143-.19c-.684.257-1.287.626-1.852 1.035L27.516 8.885l-2.547 2.82L41.862 26.97c-.966 1.935-1.18 4.24-.357 6.42l.003.002c1.29 3.414 4.676 5.44 8.15 5.163a8.079 8.079 0 0 0 2.2-.494 8.233 8.233 0 0 0 1.463-.733l24.182 21.858 2.548-2.82zm-53.475 7.595a4.231 4.231 0 0 1-5.454-2.46 4.233 4.233 0 0 1 5.697-5.352 4.21 4.21 0 0 1 2.22 2.36 4.231 4.231 0 0 1-2.462 5.453m6.015-6.795a7.989 7.989 0 0 0-4.207-4.482 7.985 7.985 0 0 0-6.144-.19c-.368.14-.698.328-1.034.513L2.73 36.307.184 39.126l18.22 16.467c-1.37 2.08-1.78 4.754-.834 7.254 1.292 3.416 4.678 5.44 8.15 5.165a7.966 7.966 0 0 0 2.202-.494c.822-.313 1.554-.774 2.217-1.315l22.58 20.41 2.546-2.82-22.818-20.625a7.973 7.973 0 0 0 .145-6m48.258 44.459s-9.646-8.152-20.936-7.582c-11.29.57-18.627 8.686-18.627 8.686s9.676 8.748 20.092 8.52c10.414-.228 19.47-9.623 19.47-9.623m3.868-13.578s3.637.162 5.106.226l4.872.218c-1.4-3.012-3.392-6.126-6.212-8.673-8.388-7.582-19.312-7.03-19.312-7.03s.658 13.028 8.183 20.23c2.52 2.413 5.66 3.992 8.724 5.023l-.72-5.292-.64-4.7m37.672 15.672s-9.082-8.777-9.653-20.07c-.57-11.29 6.766-19.404 6.766-19.404s9.675 8.745 10.5 19.13c.82 10.384-7.612 20.344-7.612 20.344m-13.909 6.089l5.105.225 4.872.218c-1.4-3.012-3.39-6.126-6.21-8.675-8.39-7.58-19.315-7.028-19.315-7.028s.657 13.028 8.184 20.23c2.52 2.413 5.66 3.992 8.72 5.023 0 0-.525-3.88-.72-5.292-.19-1.415-.638-4.7-.638-4.7m37.23 14.986s-9.08-8.775-9.65-20.066c-.57-11.29 6.764-19.407 6.764-19.407s9.676 8.747 10.498 19.13c.824 10.386-7.61 20.344-7.61 20.344m-17.775 19.666s-9.647-8.153-20.937-7.58c-11.292.57-18.627 8.684-18.627 8.684s9.676 8.747 20.092 8.52c10.415-.227 19.472-9.623 19.472-9.623m23.059 20.842s-9.646-8.152-20.937-7.582c-11.293.57-18.628 8.686-18.628 8.686s9.677 8.745 20.093 8.52c10.414-.23 19.47-9.624 19.47-9.624m3.868-13.576l5.106.225 4.872.216c-1.4-3.012-3.39-6.126-6.21-8.674-8.39-7.58-19.314-7.03-19.314-7.03s.657 13.028 8.183 20.23c2.52 2.413 5.66 3.99 8.723 5.023l-.72-5.292-.64-4.7m37.154 14.921s-9.082-8.776-9.654-20.067c-.568-11.29 6.767-19.407 6.767-19.407s9.675 8.746 10.497 19.13c.824 10.385-7.61 20.343-7.61 20.343M19.644 30.222c-1.06.4-2.21.362-3.236-.1a4.236 4.236 0 0 1 1.403-8.076 4.236 4.236 0 0 1 4.294 2.72 4.238 4.238 0 0 1-2.46 5.455m25.48 20.835s1.103-.054 2.868.113L24.996 30.38c1.22-2.034 1.564-4.57.66-6.957-1.565-4.143-6.218-6.23-10.352-4.67-.72.273-1.356.666-1.944 1.11L5.058 12.36 2.51 15.18l8.42 7.61c-.92 1.912-1.102 4.177-.294 6.313a7.964 7.964 0 0 0 4.208 4.48 7.98 7.98 0 0 0 6.145.193 7.842 7.842 0 0 0 1.35-.675l23.124 20.902c-.276-1.79-.34-2.945-.34-2.945M304.84 363.857C246.718 245.034 172.177 172.2 171.43 171.48l5.282-5.464c.756.732 76.215 74.416 134.955 194.503l-6.827 3.337z" fill="#FF625F"/><path d="M311.666 360.52c-44.26-90.485-97.996-154.604-122.13-181.04-1.138-4.344-3.525-10.527-8.464-14.99-8.385-7.582-19.313-7.03-19.313-7.03s.658 13.027 8.185 20.23c3.838 3.672 9.11 5.408 13.356 6.228 23.432 25.563 77.237 89.368 121.54 179.94l6.826-3.34z" fill="#FF625F"/><path d="M216.585 240.852s-24.215 27.723-65.34 20.903c0 0 10.3-15.362 29.206-21.593 25.03-8.25 36.135.69 36.135.69m-21.548-14.502s-25.755 12.675-53.304-4.59c0 0 12.027-7.96 27.507-6.763 20.49 1.58 25.798 11.352 25.798 11.352M16.65 205.77a4 4 0 0 1 5.65.041 4.003 4.003 0 0 1-.04 5.65c-1.57 1.545-4.11 1.525-5.646-.04a3.973 3.973 0 0 1-1.152-2.832 3.975 3.975 0 0 1 1.188-2.817m-2.165 36.905a4.002 4.002 0 0 1 5.65.039 3.999 3.999 0 0 1-.038 5.648 3.988 3.988 0 0 1-5.65-.04 4 4 0 0 1 .038-5.648m30.827-18.447a3.958 3.958 0 0 1 1.19-2.814 3.969 3.969 0 0 1 2.833-1.153 3.981 3.981 0 0 1 2.814 1.191 3.998 3.998 0 0 1-.04 5.65 3.96 3.96 0 0 1-2.83 1.15 3.998 3.998 0 0 1-3.968-4.022m-31.998-21.842l-.002.002a8.691 8.691 0 0 0-2.604 6.166 8.691 8.691 0 0 0 2.52 6.203c.162.165.33.322.503.472.682.59 1.447 1.023 2.242 1.37l-1.325 20.624c-1.275.402-2.482 1.067-3.498 2.067-3.434 3.387-3.472 8.938-.086 12.373.162.163.327.32.5.468 3.412 2.96 8.6 2.842 11.867-.383 3.198-3.153 3.414-8.156.703-11.607 5.748-7.533 12.408-10.716 17.396-11.96.404.8.9 1.56 1.548 2.22.164.164.333.325.507.474a8.678 8.678 0 0 0 5.66 2.13 8.692 8.692 0 0 0 6.204-2.52c3.432-3.388 3.47-8.935.086-12.37a8.743 8.743 0 0 0-6.168-2.606 8.686 8.686 0 0 0-6.203 2.522c-1.075 1.06-1.804 2.36-2.215 3.77-5.61 1.21-13.053 4.252-19.715 11.74l1.07-16.692c1.198-.413 2.332-1.06 3.292-2.004 3.434-3.388 3.473-8.937.086-12.37-3.386-3.425-8.936-3.473-12.37-.088m242.709-66.887s35.748-9.028 48.333-48.843c0 0-18.39 2.222-32.54 16.272-18.73 18.597-15.792 32.57-15.792 32.57m15.356-78.299s-21.62 18.956-16.23 51.07c0 0 11.982-8.068 16.823-22.847 6.406-19.56-.593-28.223-.593-28.223" fill="#FF625F"/></g></svg>