<svg id="Layer_1" xmlns="http://www.w3.org/2000/svg" viewBox="0 0 530 218.7"><style>.st0{fill:#fff}</style><path class="st0" d="M477.7 60.3l-8.3-8.3V41l-8.3 8.3v11l16.6 16.6v13.8l8.3-8.3V68.6l-1.4-1.4-6.9-6.9zm-8.3-19.4l8.3-8.3 8.3 8.3-8.3 8.3-8.3-8.3zm-8.3 49.8l8.3-8.3 8.3 8.3-8.3 8.3-8.3-8.3zM372 40.9l-8.3-8.3-8.3 8.3 5.5 5.5v47l5.5 5.5 5.5-5.5V54.7l.1-13.8zm-.1 0l8.3-8.3 8.3 8.3-8.3 8.3-8.3-8.3zm63.6 0l8.2 8.2-8.2 8.2V40.9l-11 11v35.9l11 11.1 5.5-5.5 2.8-2.8 8.3-8.3-2.8-2.8-8.3 8.3-5.5-5.5V62.9l19.3-19.3-11-11-8.3 8.3zM176 18.8l-8.3-8.3-8.3 8.3 5.5 5.5v69.1l5.5 5.5 5.5-5.5V32.6l.1-13.8zm0 38.7l5.5 5.5v30.4l5.5 5.5 5.5-5.5V57.5l-8.3-8.3-8.2 8.3zm0-16.6l8.3-8.3 8.3 8.3-8.3 8.3-8.3-8.3zm-36.8 0l8.3-8.3 8.3 8.3-8.3 8.3-8.3-8.3zM128.1 52v35.9L139.2 99l5.5-5.5 2.8-2.8 8.3-8.3-2.8-2.8-8.3 8.3-5.5-5.5V40.9L128.1 52zm-24-19.4l-8.3 8.3 8.3 8.3v41.4l8.3 8.3 8.3-8.3-5.5-5.5V43.7l-11.1-11.1zm-8.3 49.8V40.9L84.8 52v35.9L95.9 99l8.3-8.3-8.4-8.3zm234.1 16.5l5.5-5.5 2.8-2.8 8.3-8.3-2.8-2.8-8.3 8.3-5.5-5.5V62.9l19.3-19.3-11-11-8.3 8.3 8.2 8.2-8.2 8.2V40.9l-11 11v35.9l11 11.1zm-75.7-49.7v41.4l11.1-11.1V43.7l-11.1-11-8.3 8.3 8.3 8.2zM234.8 52v35.9L245.9 99l8.3-8.3-8.3-8.3V40.9L234.8 52zm279.8 30.4l-5.5 5.5V43.7l11-11h-11v-8.3l-19.3 19.3h8.3v49.7l5.5 5.5 5.5-5.5 8.3-8.3-2.8-2.7zm-452.3-.9V14.8L53.5 6l-8.7 8.7 5.8 5.8V35L36.2 49.5V14.8L27.5 6 10 23.5l3 3 8.7-8.7 2.9 2.9v72.5l5.8 5.8 5.8-5.8V62l14.4-14.4v39.8L62.2 99l5.8-5.8 2.9-2.9 5.8-5.8-2.9-2.9-5.8 5.8-5.7-5.9zm234.4-32.3v41.4l11-11.1V43.7l-11-11-8.3 8.3 8.3 8.2zm-8.3-16.6V18.8l-8.3-8.3-8.3 8.3 5.5 5.5v63.6l11 11.1 8.3-8.3-8.3-8.3V40.9l.1-8.3zM412 13.3l8.3-8.3 8.3 8.3-8.3 8.3-8.3-8.3zm-11 80.1l5.5 5.5 5.5-5.5V43.7l11-11h-11V13.3l-11 11v11.1l-8.3 8.3h8.3v49.7zM198.8 43.7h8.3v49.7l5.5 5.5 5.5-5.5 8.3-8.3-2.8-2.8-5.5 5.5V43.7l11.1-11h-11.1v-8.3l-19.3 19.3zm-36.1 72.6l-11.1 11v63.6l-5.5 5.5 8.3 8.3 8.3-8.3v-63.6l8.3-8.2z"/><path class="st0" d="M171 124.6V166l-8.3 8.3 8.3 8.3 11-11.1v-35.9zm95.4 13.3l-8.3 8.3 8.3 8.3v50.2l11.1-11.1V149zm11.1 11.1l8.3 8.3v47.3l11-11.1v-41.8l-11-11zm75-11.1l-8.3 8.3 8.3 8.3v50.2l11.1-11.1V149zm11.1 11.1l8.2 8.3v47.3l11.1-11.1v-41.8l-11.1-11zm-154.4-10.6l-8.3 8.3 8.3 8.2v41.5l11.1-11.1v-35.9zm0 58l-8.3-8.3v-41.4l-11 11v35.9l11 11.1zm117.6-58l-8.3 8.3 8.3 8.2v41.5l8.2 8.3 8.3-8.3-5.5-5.5v-41.5z"/><path class="st0" d="M326.8 196.4l-8.3-8.3v-41.4l-11.1 11v35.9l11.1 11.1zm-89.9-58l-8.2 8.3 8.2 8.2 8.3-8.2v11l-8.3 8.3-6.9 6.9-1.4 1.4v13.8l8.3 8.3v-13.8l16.6-16.6v-11l-8.3-8.3z"/><path transform="rotate(-45.001 245.216 196.393)" class="st0" d="M239.4 190.5h11.7v11.7h-11.7z"/><path transform="rotate(-45.001 371.947 132.298)" class="st0" d="M366.1 126.4h11.7v11.7h-11.7z"/></svg>