<svg aria-hidden="true" width="305" height="291" viewBox="0 0 305 291" xmlns="http://www.w3.org/2000/svg"><g fill="none" fill-rule="evenodd"><path fill="#FF625F" d="M192.585 7.49l22.32-7.015 4.677 14.88-22.322 7.016"/><path fill="#FF9566" d="M193.54 23.54l7.443-2.34 7.012 22.323 14.882-4.677-7.014-22.322-8.466 2.663 15.906-4.998 12.8 43.106-29.76 9.35"/><path fill="#FF625F" d="M215.214 67.722l14.88-4.677 2.338 7.442-14.88 4.675"/><path d="M253.32 272.11c-3.208-110.66-32.424-201.05-32.72-201.952l6.446-2.11c.3.908 29.817 92.234 33.053 203.863l-6.78.2z" fill="#FF625F"/><path d="M98.625 81.962s-9.082-8.777-9.652-20.067c-.57-11.292 6.765-19.407 6.765-19.407s9.676 8.746 10.5 19.13c.822 10.384-7.613 20.344-7.613 20.344M104.616 123.39s-9.648-8.153-20.938-7.583c-11.29.57-18.627 8.686-18.627 8.686s9.677 8.747 20.093 8.52c10.415-.23 19.473-9.624 19.473-9.624M131.802 130.89s3.638.16 5.106.227l4.872.218c-1.4-3.012-3.39-6.126-6.21-8.675-8.39-7.58-19.314-7.03-19.314-7.03s.657 13.027 8.183 20.23c2.52 2.414 5.66 3.992 8.723 5.022l-.72-5.29-.64-4.7M168.77 145.644s-9.082-8.778-9.652-20.068c-.57-11.29 6.765-19.406 6.765-19.406s9.677 8.745 10.5 19.13c.822 10.385-7.612 20.344-7.612 20.344M174.242 186.32s-9.647-8.154-20.94-7.582c-11.29.57-18.626 8.685-18.626 8.685s9.677 8.746 20.093 8.518c10.413-.227 19.472-9.62 19.472-9.62M60.67 66.317l5.106.225 4.872.218c-1.4-3.012-3.392-6.126-6.21-8.675-8.388-7.58-19.314-7.03-19.314-7.03s.657 13.03 8.184 20.232c2.52 2.412 5.66 3.99 8.722 5.022 0 0-.526-3.88-.72-5.293l-.64-4.7" fill="#FF9566"/><path d="M50.517 34.508c-2.186.83-4.63-.28-5.454-2.46-.827-2.182.28-4.63 2.46-5.452 1.06-.4 2.208-.366 3.237.1 1.03.465 1.816 1.304 2.217 2.36.397 1.057.363 2.206-.1 3.237-.466 1.03-1.304 1.816-2.36 2.215zm29.536 21.86L55.93 34.566c.138-.235.296-.457.408-.71.882-1.954.95-4.136.194-6.143-.76-2.006-2.253-3.597-4.21-4.48-1.958-.88-4.14-.95-6.143-.19-.684.257-1.287.626-1.852 1.035L27.516 8.885l-2.547 2.82L41.862 26.97c-.966 1.935-1.18 4.24-.357 6.42l.003.002c1.29 3.414 4.676 5.44 8.15 5.163.734-.06 1.475-.22 2.2-.494.518-.196 1.004-.445 1.463-.733l24.182 21.858 2.548-2.82zM26.578 63.963c-2.19.828-4.63-.28-5.454-2.46-.826-2.182.28-4.63 2.46-5.452 1.06-.4 2.208-.365 3.237.1 1.032.465 1.818 1.303 2.22 2.36.396 1.057.36 2.206-.102 3.236-.465 1.03-1.304 1.817-2.36 2.217m6.015-6.795c-.76-2.008-2.253-3.598-4.207-4.482-1.958-.88-4.143-.95-6.144-.19-.368.14-.698.328-1.034.513L2.73 36.307.184 39.126l18.22 16.467c-1.37 2.08-1.78 4.754-.834 7.254 1.292 3.416 4.678 5.44 8.15 5.165.737-.057 1.476-.22 2.202-.494.822-.313 1.554-.774 2.217-1.315l22.58 20.41 2.546-2.82-22.818-20.625c.823-1.92.885-4.042.145-6M80.85 101.627s-9.646-8.152-20.936-7.582c-11.29.57-18.627 8.686-18.627 8.686s9.676 8.748 20.092 8.52c10.414-.228 19.47-9.623 19.47-9.623M84.717 88.05s3.637.162 5.106.226l4.872.218c-1.4-3.012-3.392-6.126-6.212-8.673-8.388-7.582-19.312-7.03-19.312-7.03s.658 13.028 8.183 20.23c2.52 2.413 5.66 3.992 8.724 5.023l-.72-5.292-.64-4.7M122.39 103.724s-9.082-8.777-9.653-20.07c-.57-11.29 6.766-19.404 6.766-19.404s9.675 8.745 10.5 19.13c.82 10.384-7.612 20.344-7.612 20.344M108.482 109.813l5.105.225 4.872.218c-1.4-3.012-3.39-6.126-6.21-8.675-8.39-7.58-19.315-7.028-19.315-7.028s.657 13.028 8.184 20.23c2.52 2.413 5.66 3.992 8.72 5.023 0 0-.525-3.88-.72-5.292-.19-1.415-.638-4.7-.638-4.7M145.71 124.8s-9.08-8.775-9.65-20.066c-.57-11.29 6.764-19.407 6.764-19.407s9.676 8.747 10.498 19.13c.824 10.386-7.61 20.344-7.61 20.344M127.937 144.467s-9.647-8.153-20.937-7.58c-11.292.57-18.627 8.684-18.627 8.684s9.676 8.747 20.092 8.52c10.415-.227 19.472-9.623 19.472-9.623M150.996 165.31s-9.646-8.152-20.937-7.582c-11.293.57-18.628 8.686-18.628 8.686s9.677 8.745 20.093 8.52c10.414-.23 19.47-9.624 19.47-9.624M154.862 151.734l5.106.225 4.872.216c-1.4-3.012-3.39-6.126-6.21-8.674-8.39-7.58-19.314-7.03-19.314-7.03s.657 13.028 8.183 20.23c2.52 2.413 5.66 3.99 8.723 5.023l-.72-5.292-.64-4.7M192.016 166.653s-9.082-8.776-9.654-20.067c-.568-11.29 6.767-19.407 6.767-19.407s9.675 8.746 10.497 19.13c.824 10.385-7.61 20.343-7.61 20.343M19.644 30.222c-1.06.4-2.21.362-3.236-.1-1.032-.467-1.818-1.305-2.217-2.363-.825-2.183.28-4.628 2.46-5.453.382-.144.772-.23 1.16-.26 1.83-.145 3.614.92 4.294 2.72.825 2.182-.28 4.63-2.46 5.455m25.48 20.835s1.103-.054 2.868.113L24.996 30.38c1.22-2.034 1.564-4.57.66-6.957-1.565-4.143-6.218-6.23-10.352-4.67-.72.273-1.356.666-1.944 1.11L5.058 12.36 2.51 15.18l8.42 7.61c-.92 1.912-1.102 4.177-.294 6.313.758 2.007 2.252 3.6 4.208 4.48 1.252.565 2.595.796 3.927.69.75-.06 1.496-.224 2.218-.497.483-.183.928-.414 1.35-.675l23.124 20.902c-.276-1.79-.34-2.945-.34-2.945M304.84 363.857C246.718 245.034 172.177 172.2 171.43 171.48l5.282-5.464c.756.732 76.215 74.416 134.955 194.503l-6.827 3.337z" fill="#FF625F"/><path d="M311.666 360.52c-44.26-90.485-97.996-154.604-122.13-181.04-1.138-4.344-3.525-10.527-8.464-14.99-8.385-7.582-19.313-7.03-19.313-7.03s.658 13.027 8.185 20.23c3.838 3.672 9.11 5.408 13.356 6.228 23.432 25.563 77.237 89.368 121.54 179.94l6.826-3.34z" fill="#FF625F"/><path d="M216.585 240.852s-24.215 27.723-65.34 20.903c0 0 10.3-15.362 29.206-21.593 25.03-8.25 36.135.69 36.135.69M195.038 226.35s-25.755 12.675-53.304-4.59c0 0 12.027-7.96 27.507-6.763 20.49 1.58 25.798 11.352 25.798 11.352M16.65 205.77c1.494-1.47 3.862-1.525 5.42-.172.08.067.157.138.23.213 1.545 1.567 1.527 4.102-.04 5.65-1.57 1.545-4.11 1.525-5.646-.04-.75-.76-1.158-1.766-1.152-2.832.007-1.067.43-2.067 1.188-2.817m-2.165 36.905c1.494-1.472 3.863-1.526 5.42-.176.08.07.154.14.23.215 1.546 1.566 1.53 4.1-.038 5.648-1.57 1.547-4.07 1.542-5.65-.04-1.546-1.567-1.528-4.1.038-5.648m30.827-18.447c.007-1.067.43-2.066 1.19-2.814.76-.75 1.765-1.16 2.833-1.153.96.008 1.866.353 2.584.974.077.067.155.142.23.217 1.547 1.57 1.53 4.103-.04 5.65-.758.75-1.764 1.157-2.83 1.15-1.066-.008-2.056-.43-2.818-1.19-.748-.757-1.156-1.764-1.15-2.832m-31.998-21.842l-.002.002c-1.663 1.64-2.587 3.83-2.604 6.166-.016 2.338.88 4.54 2.52 6.203.162.165.33.322.503.472.682.59 1.447 1.023 2.242 1.37l-1.325 20.624c-1.275.402-2.482 1.067-3.498 2.067-3.434 3.387-3.472 8.938-.086 12.373.162.163.327.32.5.468 3.412 2.96 8.6 2.842 11.867-.383 3.198-3.153 3.414-8.156.703-11.607 5.748-7.533 12.408-10.716 17.396-11.96.404.8.9 1.56 1.548 2.22.164.164.333.325.507.474 1.572 1.365 3.558 2.115 5.66 2.13 2.338.016 4.542-.88 6.204-2.52 3.432-3.388 3.47-8.935.086-12.37-1.623-1.645-3.83-2.588-6.168-2.606-2.337-.016-4.54.88-6.203 2.522-1.075 1.06-1.804 2.36-2.215 3.77-5.61 1.21-13.053 4.252-19.715 11.74l1.07-16.692c1.198-.413 2.332-1.06 3.292-2.004 3.434-3.388 3.473-8.937.086-12.37-3.386-3.425-8.936-3.473-12.37-.088M256.02 135.503s35.748-9.028 48.333-48.843c0 0-18.39 2.222-32.54 16.272-18.73 18.597-15.792 32.57-15.792 32.57M271.377 57.203s-21.62 18.956-16.23 51.07c0 0 11.982-8.068 16.823-22.847 6.406-19.56-.593-28.223-.593-28.223" fill="#FF625F"/></g></svg>
